<?xml version="1.0" encoding="iso-8859-1"?>
<!-- Generator: Adobe Illustrator 19.0.0, SVG Export Plug-In . SVG Version: 6.00 Build 0)  -->
<svg version="1.1" id="Layer_1" xmlns="http://www.w3.org/2000/svg" xmlns:xlink="http://www.w3.org/1999/xlink" x="0px" y="0px"
	 viewBox="0 0 466.495 466.495" style="enable-background:new 0 0 466.495 466.495;" xml:space="preserve">
<g>
	<g>
		<g>
			<path d="M458.996,136.828H240.748v-6.721c0-4.142-3.357-7.5-7.5-7.5s-7.5,3.358-7.5,7.5v6.721H7.5c-4.143,0-7.5,3.358-7.5,7.5
				c0,4.142,3.357,7.5,7.5,7.5h218.248v28.846h-1.082c-29.711,0-53.882,24.171-53.882,53.882v45.623
				c0,9.007,3.086,17.301,8.245,23.901c-17.607,0.25-31.856,14.642-31.856,32.308c0,4.142,3.357,7.5,7.5,7.5s7.5-3.358,7.5-7.5
				c0-9.55,7.77-17.32,17.32-17.32h107.51c9.55,0,17.319,7.77,17.319,17.32c0,4.142,3.357,7.5,7.5,7.5s7.5-3.358,7.5-7.5
				c0-17.666-14.248-32.058-31.856-32.308c5.159-6.6,8.245-14.894,8.245-23.901v-45.623c0-29.71-24.171-53.882-53.882-53.882h-1.082
				v-28.846h218.248c4.143,0,7.5-3.358,7.5-7.5C466.495,140.186,463.139,136.828,458.996,136.828z M256.821,304.067h-47.148
				c-12.435,0-22.677-9.553-23.785-21.705c1.827,0.824,3.859,1.618,6.126,2.371c11.119,3.69,25.762,5.723,41.23,5.723
				c17.206,0,35.151-2.64,47.371-8.205C279.56,294.456,269.295,304.067,256.821,304.067z M280.707,235.053l0.005,28.803
				c0,0.032-0.005,0.064-0.005,0.097v0.52c-1.525,2.953-15.029,9.657-39.962,10.81v-19.235c0-4.142-3.357-7.5-7.5-7.5
				s-7.5,3.358-7.5,7.5v19.227c-10.969-0.53-21.256-2.206-29.006-4.777c-7.646-2.538-10.448-5.152-10.955-6.032v-0.512v-28.907
				c1.672-3.236,17.728-10.984,47.461-10.984c13.705,0,27.011,1.808,36.507,4.959C277.398,231.558,280.2,234.172,280.707,235.053z
				 M241.83,195.673c14.368,0,26.932,7.84,33.662,19.461c-0.336-0.117-0.669-0.235-1.016-0.35
				c-11.119-3.69-25.762-5.723-41.231-5.723c-14.951,0-30.466,1.992-42.294,6.165c6.718-11.671,19.309-19.553,33.715-19.553H241.83z
				"/>
			<path d="M240.171,232.776c-0.088-0.206-0.054-0.125-0.012-0.023c-2.591-6.065-11.516-5.99-13.905,0.196
				c-2.524,6.539,4.858,12.683,10.844,9.132c3.143-1.864,4.454-5.893,3.087-9.266C240.226,232.912,240.255,232.981,240.171,232.776z
				"/>
		</g>
	</g>
</g>
<g>
</g>
<g>
</g>
<g>
</g>
<g>
</g>
<g>
</g>
<g>
</g>
<g>
</g>
<g>
</g>
<g>
</g>
<g>
</g>
<g>
</g>
<g>
</g>
<g>
</g>
<g>
</g>
<g>
</g>
</svg>
